<?xml version="1.0" encoding="UTF-8" standalone="no"?>
<!-- Created with Inkscape (http://www.inkscape.org/) -->

<svg
   width="300mm"
   height="70mm"
   viewBox="0 0 300 70"
   version="1.1"
   id="svg5"
   xml:space="preserve"
   inkscape:version="1.2.1 (9c6d41e, 2022-07-14)"
   sodipodi:docname="cross-over-v2.svg"
   xmlns:inkscape="http://www.inkscape.org/namespaces/inkscape"
   xmlns:sodipodi="http://sodipodi.sourceforge.net/DTD/sodipodi-0.dtd"
   xmlns="http://www.w3.org/2000/svg"
   xmlns:svg="http://www.w3.org/2000/svg"><sodipodi:namedview
     id="namedview7"
     pagecolor="#ffffff"
     bordercolor="#666666"
     borderopacity="1.0"
     inkscape:showpageshadow="2"
     inkscape:pageopacity="0.0"
     inkscape:pagecheckerboard="0"
     inkscape:deskcolor="#d1d1d1"
     inkscape:document-units="mm"
     showgrid="false"
     inkscape:zoom="1.9332923"
     inkscape:cx="451.81993"
     inkscape:cy="234.83257"
     inkscape:window-width="2560"
     inkscape:window-height="1654"
     inkscape:window-x="0"
     inkscape:window-y="25"
     inkscape:window-maximized="1"
     inkscape:current-layer="layer1" /><defs
     id="defs2"><rect
       x="280"
       y="554"
       width="45"
       height="48"
       id="rect1146" /><rect
       x="277"
       y="457"
       width="59"
       height="53"
       id="rect1140" /><rect
       x="55.393433"
       y="169.93578"
       width="184.95773"
       height="55.393433"
       id="rect236" /><rect
       x="55.393433"
       y="169.93578"
       width="184.95773"
       height="55.393433"
       id="rect402" /><rect
       x="277"
       y="457"
       width="59"
       height="53"
       id="rect1154" /><rect
       x="277"
       y="457"
       width="59"
       height="53"
       id="rect1160" /><rect
       x="277"
       y="457"
       width="59"
       height="53"
       id="rect1166" /><rect
       x="280"
       y="554"
       width="45"
       height="48"
       id="rect1172" /><rect
       x="280"
       y="554"
       width="45"
       height="48"
       id="rect1178" /><rect
       x="280"
       y="554"
       width="45"
       height="48"
       id="rect1184" /><rect
       x="277"
       y="457"
       width="59"
       height="53"
       id="rect1190" /><rect
       x="277"
       y="457"
       width="59"
       height="53"
       id="rect1196" /><rect
       x="280"
       y="554"
       width="45"
       height="48"
       id="rect1202" /><rect
       x="280"
       y="554"
       width="45"
       height="48"
       id="rect1208" /><rect
       x="55.393433"
       y="169.93578"
       width="184.95773"
       height="55.393433"
       id="rect1268" /><rect
       x="55.393433"
       y="169.93578"
       width="184.95773"
       height="55.393433"
       id="rect1356" /><rect
       x="55.393433"
       y="169.93578"
       width="184.95773"
       height="55.393433"
       id="rect1358" /><rect
       x="277"
       y="457"
       width="59"
       height="53"
       id="rect1360" /><rect
       x="280"
       y="554"
       width="45"
       height="48"
       id="rect1362" /><rect
       x="277"
       y="457"
       width="59"
       height="53"
       id="rect1364" /><rect
       x="277"
       y="457"
       width="59"
       height="53"
       id="rect1366" /><rect
       x="277"
       y="457"
       width="59"
       height="53"
       id="rect1368" /><rect
       x="280"
       y="554"
       width="45"
       height="48"
       id="rect1370" /><rect
       x="280"
       y="554"
       width="45"
       height="48"
       id="rect1372" /><rect
       x="280"
       y="554"
       width="45"
       height="48"
       id="rect1374" /><rect
       x="277"
       y="457"
       width="59"
       height="53"
       id="rect1376" /><rect
       x="277"
       y="457"
       width="59"
       height="53"
       id="rect1378" /><rect
       x="280"
       y="554"
       width="45"
       height="48"
       id="rect1380" /><rect
       x="280"
       y="554"
       width="45"
       height="48"
       id="rect1382" /><rect
       x="55.393433"
       y="169.93578"
       width="184.95773"
       height="55.393433"
       id="rect1384" /><rect
       x="55.393433"
       y="169.93578"
       width="184.95773"
       height="55.393433"
       id="rect1339" /><rect
       x="277"
       y="457"
       width="59"
       height="53"
       id="rect1469" /><rect
       x="280"
       y="554"
       width="45"
       height="48"
       id="rect1471" /><rect
       x="277"
       y="457"
       width="59"
       height="53"
       id="rect1473" /><rect
       x="277"
       y="457"
       width="59"
       height="53"
       id="rect1475" /><rect
       x="277"
       y="457"
       width="59"
       height="53"
       id="rect1477" /><rect
       x="280"
       y="554"
       width="45"
       height="48"
       id="rect1479" /><rect
       x="280"
       y="554"
       width="45"
       height="48"
       id="rect1481" /><rect
       x="280"
       y="554"
       width="45"
       height="48"
       id="rect1483" /><rect
       x="277"
       y="457"
       width="59"
       height="53"
       id="rect1485" /><rect
       x="277"
       y="457"
       width="59"
       height="53"
       id="rect1487" /><rect
       x="280"
       y="554"
       width="45"
       height="48"
       id="rect1489" /><rect
       x="280"
       y="554"
       width="45"
       height="48"
       id="rect1491" /></defs><g
     inkscape:label="Layer 1"
     inkscape:groupmode="layer"
     id="layer1"
     transform="translate(-10.358801,-0.94242054)"><text
       xml:space="preserve"
       transform="matrix(0.26458333,0,0,0.26458333,3.0860713,-26.684568)"
       id="text234"
       style="font-style:normal;font-weight:normal;font-size:40px;line-height:1.25;font-family:sans-serif;white-space:pre;shape-inside:url(#rect236);display:inline;fill:#000000;fill-opacity:1;stroke:none"><tspan
         x="55.392578"
         y="206.42876"
         id="tspan1647"><tspan
           style="font-family:Arial;-inkscape-font-specification:Arial"
           id="tspan1645">Parent 1</tspan></tspan></text><text
       xml:space="preserve"
       transform="matrix(0.26458333,0,0,0.26458333,3.0860713,-5.9409659)"
       id="text400"
       style="font-style:normal;font-weight:normal;font-size:40px;line-height:1.25;font-family:sans-serif;white-space:pre;shape-inside:url(#rect402);display:inline;fill:#000000;fill-opacity:1;stroke:none"><tspan
         x="55.392578"
         y="206.42876"
         id="tspan1651"><tspan
           style="font-family:Arial;-inkscape-font-specification:Arial"
           id="tspan1649">Parent 2</tspan></tspan></text><rect
       style="fill:#f4d7d7;stroke:#000000;stroke-width:0.3;stroke-linecap:round;stroke-linejoin:round;stroke-miterlimit:7;stroke-dasharray:none;stroke-opacity:1"
       id="rect456"
       width="12.917311"
       height="13.16572"
       x="63.687138"
       y="18.038923" /><rect
       style="fill:#ac9d93;stroke:#000000;stroke-width:0.3;stroke-linecap:round;stroke-linejoin:round;stroke-miterlimit:7;stroke-dasharray:none;stroke-opacity:1"
       id="rect1064"
       width="12.917311"
       height="13.16572"
       x="89.521751"
       y="18.038923" /><rect
       style="fill:#f4d7d7;stroke:#000000;stroke-width:0.3;stroke-linecap:round;stroke-linejoin:round;stroke-miterlimit:7;stroke-dasharray:none;stroke-opacity:1"
       id="rect1118"
       width="12.917311"
       height="13.16572"
       x="76.604446"
       y="18.038923" /><rect
       style="fill:#ac9d93;stroke:#000000;stroke-width:0.3;stroke-linecap:round;stroke-linejoin:round;stroke-miterlimit:7;stroke-dasharray:none;stroke-opacity:1"
       id="rect1120"
       width="12.917311"
       height="13.16572"
       x="115.35638"
       y="18.038923" /><rect
       style="fill:#f4d7d7;stroke:#000000;stroke-width:0.3;stroke-linecap:round;stroke-linejoin:round;stroke-miterlimit:7;stroke-dasharray:none;stroke-opacity:1"
       id="rect1122"
       width="12.917311"
       height="13.16572"
       x="102.43906"
       y="18.038923" /><rect
       style="fill:#f4d7d7;stroke:#000000;stroke-width:0.3;stroke-linecap:round;stroke-linejoin:round;stroke-miterlimit:7;stroke-dasharray:none;stroke-opacity:1"
       id="rect1124"
       width="12.917311"
       height="13.16572"
       x="128.27368"
       y="18.038923" /><rect
       style="fill:#f4d7d7;stroke:#000000;stroke-width:0.3;stroke-linecap:round;stroke-linejoin:round;stroke-miterlimit:7;stroke-dasharray:none;stroke-opacity:1"
       id="rect1126"
       width="12.917311"
       height="13.16572"
       x="63.535122"
       y="37.648975" /><rect
       style="fill:#ac9d93;stroke:#000000;stroke-width:0.3;stroke-linecap:round;stroke-linejoin:round;stroke-miterlimit:7;stroke-dasharray:none;stroke-opacity:1"
       id="rect1128"
       width="12.917311"
       height="13.16572"
       x="89.369736"
       y="37.648975" /><rect
       style="fill:#ac9d93;stroke:#000000;stroke-width:0.3;stroke-linecap:round;stroke-linejoin:round;stroke-miterlimit:7;stroke-dasharray:none;stroke-opacity:1"
       id="rect1130"
       width="12.917311"
       height="13.16572"
       x="76.452431"
       y="37.648975" /><rect
       style="fill:#ac9d93;stroke:#000000;stroke-width:0.3;stroke-linecap:round;stroke-linejoin:round;stroke-miterlimit:7;stroke-dasharray:none;stroke-opacity:1"
       id="rect1132"
       width="12.917311"
       height="13.16572"
       x="115.20435"
       y="37.648975" /><rect
       style="fill:#ac9d93;stroke:#000000;stroke-width:0.3;stroke-linecap:round;stroke-linejoin:round;stroke-miterlimit:7;stroke-dasharray:none;stroke-opacity:1"
       id="rect1134"
       width="12.917311"
       height="13.16572"
       x="102.28705"
       y="37.648975" /><rect
       style="fill:#f4d7d7;stroke:#000000;stroke-width:0.3;stroke-linecap:round;stroke-linejoin:round;stroke-miterlimit:7;stroke-dasharray:none;stroke-opacity:1"
       id="rect1136"
       width="12.917311"
       height="13.16572"
       x="128.12166"
       y="37.648975" /><text
       xml:space="preserve"
       transform="matrix(0.26458333,0,0,0.26458333,-6.6629547,-102.08806)"
       id="text1138"
       style="font-style:normal;font-weight:normal;font-size:40px;line-height:1.25;font-family:sans-serif;white-space:pre;shape-inside:url(#rect1140);display:inline;fill:#000000;fill-opacity:1;stroke:none"><tspan
         x="277"
         y="493.49321"
         id="tspan1653">1</tspan></text><text
       xml:space="preserve"
       transform="matrix(0.26458333,0,0,0.26458333,5.4584533,-108.1581)"
       id="text1144"
       style="font-style:normal;font-weight:normal;font-size:40px;line-height:1.25;font-family:sans-serif;white-space:pre;shape-inside:url(#rect1146);display:inline;fill:#000000;fill-opacity:1;stroke:none"><tspan
         x="280"
         y="590.49321"
         id="tspan1655">0</tspan></text><text
       xml:space="preserve"
       transform="matrix(0.26458333,0,0,0.26458333,-6.8149707,-82.478015)"
       id="text1152"
       style="font-style:normal;font-weight:normal;font-size:40px;line-height:1.25;font-family:sans-serif;white-space:pre;shape-inside:url(#rect1154);display:inline;fill:#000000;fill-opacity:1;stroke:none"><tspan
         x="277"
         y="493.49321"
         id="tspan1657">1</tspan></text><text
       xml:space="preserve"
       transform="matrix(0.26458333,0,0,0.26458333,6.2543573,-102.08806)"
       id="text1158"
       style="font-style:normal;font-weight:normal;font-size:40px;line-height:1.25;font-family:sans-serif;white-space:pre;shape-inside:url(#rect1160);display:inline;fill:#000000;fill-opacity:1;stroke:none"><tspan
         x="277"
         y="493.49321"
         id="tspan1659">1</tspan></text><text
       xml:space="preserve"
       transform="matrix(0.26458333,0,0,0.26458333,32.088975,-102.08807)"
       id="text1164"
       style="font-style:normal;font-weight:normal;font-size:40px;line-height:1.25;font-family:sans-serif;white-space:pre;shape-inside:url(#rect1166);display:inline;fill:#000000;fill-opacity:1;stroke:none"><tspan
         x="277"
         y="493.49321"
         id="tspan1661">1</tspan></text><text
       xml:space="preserve"
       transform="matrix(0.26458333,0,0,0.26458333,18.375758,-108.1581)"
       id="text1170"
       style="font-style:normal;font-weight:normal;font-size:40px;line-height:1.25;font-family:sans-serif;white-space:pre;shape-inside:url(#rect1172);display:inline;fill:#000000;fill-opacity:1;stroke:none"><tspan
         x="280"
         y="590.49321"
         id="tspan1663">0</tspan></text><text
       xml:space="preserve"
       transform="matrix(0.26458333,0,0,0.26458333,31.293071,-108.1581)"
       id="text1176"
       style="font-style:normal;font-weight:normal;font-size:40px;line-height:1.25;font-family:sans-serif;white-space:pre;shape-inside:url(#rect1178);display:inline;fill:#000000;fill-opacity:1;stroke:none"><tspan
         x="280"
         y="590.49321"
         id="tspan1665">0</tspan></text><text
       xml:space="preserve"
       transform="matrix(0.26458333,0,0,0.26458333,44.210368,-108.1581)"
       id="text1182"
       style="font-style:normal;font-weight:normal;font-size:40px;line-height:1.25;font-family:sans-serif;white-space:pre;shape-inside:url(#rect1184);display:inline;fill:#000000;fill-opacity:1;stroke:none"><tspan
         x="280"
         y="590.49321"
         id="tspan1667">0</tspan></text><text
       xml:space="preserve"
       transform="matrix(0.26458333,0,0,0.26458333,57.923592,-102.08806)"
       id="text1188"
       style="font-style:normal;font-weight:normal;font-size:40px;line-height:1.25;font-family:sans-serif;white-space:pre;shape-inside:url(#rect1190);display:inline;fill:#000000;fill-opacity:1;stroke:none"><tspan
         x="277"
         y="493.49321"
         id="tspan1669">1</tspan></text><text
       xml:space="preserve"
       transform="matrix(0.26458333,0,0,0.26458333,57.771569,-82.478015)"
       id="text1194"
       style="font-style:normal;font-weight:normal;font-size:40px;line-height:1.25;font-family:sans-serif;white-space:pre;shape-inside:url(#rect1196);display:inline;fill:#000000;fill-opacity:1;stroke:none"><tspan
         x="277"
         y="493.49321"
         id="tspan1671">1</tspan></text><text
       xml:space="preserve"
       transform="matrix(0.26458333,0,0,0.26458333,44.362391,-127.76815)"
       id="text1200"
       style="font-style:normal;font-weight:normal;font-size:40px;line-height:1.25;font-family:sans-serif;white-space:pre;shape-inside:url(#rect1202);display:inline;fill:#000000;fill-opacity:1;stroke:none"><tspan
         x="280"
         y="590.49321"
         id="tspan1673">0</tspan></text><text
       xml:space="preserve"
       transform="matrix(0.26458333,0,0,0.26458333,18.527774,-127.76815)"
       id="text1206"
       style="font-style:normal;font-weight:normal;font-size:40px;line-height:1.25;font-family:sans-serif;white-space:pre;shape-inside:url(#rect1208);display:inline;fill:#000000;fill-opacity:1;stroke:none"><tspan
         x="280"
         y="590.49321"
         id="tspan1675">0</tspan></text><text
       xml:space="preserve"
       transform="matrix(0.26458333,0,0,0.26458333,63.665799,17.147009)"
       id="text1266"
       style="font-style:normal;font-weight:normal;font-size:20px;line-height:1.25;font-family:sans-serif;white-space:pre;shape-inside:url(#rect1268);display:inline;fill:#000000;fill-opacity:1;stroke:none"><tspan
         x="55.392578"
         y="188.18215"
         id="tspan1677">Randomly pick</tspan></text><text
       xml:space="preserve"
       transform="matrix(0.26458333,0,0,0.26458333,254.04365,-26.450291)"
       id="text1272"
       style="font-style:normal;font-weight:normal;font-size:40px;line-height:1.25;font-family:sans-serif;white-space:pre;shape-inside:url(#rect1356);display:inline;fill:#000000;fill-opacity:1;stroke:none"><tspan
         x="55.392578"
         y="206.42876"
         id="tspan1681"><tspan
           style="font-family:Arial;-inkscape-font-specification:Arial"
           id="tspan1679">Child 1</tspan></tspan></text><text
       xml:space="preserve"
       transform="matrix(0.26458333,0,0,0.26458333,254.04365,-5.7066885)"
       id="text1276"
       style="font-style:normal;font-weight:normal;font-size:40px;line-height:1.25;font-family:sans-serif;white-space:pre;shape-inside:url(#rect1358);display:inline;fill:#000000;fill-opacity:1;stroke:none"><tspan
         x="55.392578"
         y="206.42876"
         id="tspan1685"><tspan
           style="font-family:Arial;-inkscape-font-specification:Arial"
           id="tspan1683">Child 2</tspan></tspan></text><g
       style="fill:#000000"
       id="g2486"
       transform="matrix(0.01799767,0,0,0.01799767,157.4946,29.544181)"><g
         id="g2477">
	<path
   d="M 492.551,389.644 C 524.374,368.224 593.53,324.772 576.395,277.647 556.811,225.015 486.431,183.399 442.367,153.411 417.275,136.275 331.596,75.075 301.607,112.407 c -1.836,1.836 -2.448,4.896 -1.836,7.344 -12.24,25.092 -4.896,64.26 -4.896,91.188 0,4.896 0,9.792 0,14.688 -89.963,-0.612 -187.883,-29.988 -275.399,-4.284 -5.508,1.836 -7.956,5.508 -8.568,9.18 -0.612,0 -1.224,0.612 -1.836,0.612 -13.464,7.956 -7.956,38.556 -7.956,52.02 0,23.257 -0.612,47.737 3.672,70.38 1.224,5.509 4.896,8.568 9.18,9.181 2.448,3.06 4.896,4.284 8.568,4.284 92.412,-1.225 182.988,-12.24 275.399,-6.732 0,29.376 -1.224,58.752 -5.508,88.128 -0.612,3.672 0.611,6.732 1.836,9.18 -6.12,7.345 0.611,22.645 13.464,20.809 64.872,-9.182 131.58,-53.245 184.824,-88.741 z"
   id="path2475" />
</g></g><g
       style="fill:#000000"
       id="g1299"
       transform="matrix(0,-0.00668423,0.00668423,0,80.865812,57.928621)"><g
         id="g1297">
	<path
   d="M 492.551,389.644 C 524.374,368.224 593.53,324.772 576.395,277.647 556.811,225.015 486.431,183.399 442.367,153.411 417.275,136.275 331.596,75.075 301.607,112.407 c -1.836,1.836 -2.448,4.896 -1.836,7.344 -12.24,25.092 -4.896,64.26 -4.896,91.188 0,4.896 0,9.792 0,14.688 -89.963,-0.612 -187.883,-29.988 -275.399,-4.284 -5.508,1.836 -7.956,5.508 -8.568,9.18 -0.612,0 -1.224,0.612 -1.836,0.612 -13.464,7.956 -7.956,38.556 -7.956,52.02 0,23.257 -0.612,47.737 3.672,70.38 1.224,5.509 4.896,8.568 9.18,9.181 2.448,3.06 4.896,4.284 8.568,4.284 92.412,-1.225 182.988,-12.24 275.399,-6.732 0,29.376 -1.224,58.752 -5.508,88.128 -0.612,3.672 0.611,6.732 1.836,9.18 -6.12,7.345 0.611,22.645 13.464,20.809 64.872,-9.182 131.58,-53.245 184.824,-88.741 z"
   id="path1295" />
</g></g><g
       style="fill:#000000"
       id="g1305"
       transform="matrix(0,-0.00668423,0.00668423,0,105.85966,57.958322)"><g
         id="g1303">
	<path
   d="M 492.551,389.644 C 524.374,368.224 593.53,324.772 576.395,277.647 556.811,225.015 486.431,183.399 442.367,153.411 417.275,136.275 331.596,75.075 301.607,112.407 c -1.836,1.836 -2.448,4.896 -1.836,7.344 -12.24,25.092 -4.896,64.26 -4.896,91.188 0,4.896 0,9.792 0,14.688 -89.963,-0.612 -187.883,-29.988 -275.399,-4.284 -5.508,1.836 -7.956,5.508 -8.568,9.18 -0.612,0 -1.224,0.612 -1.836,0.612 -13.464,7.956 -7.956,38.556 -7.956,52.02 0,23.257 -0.612,47.737 3.672,70.38 1.224,5.509 4.896,8.568 9.18,9.181 2.448,3.06 4.896,4.284 8.568,4.284 92.412,-1.225 182.988,-12.24 275.399,-6.732 0,29.376 -1.224,58.752 -5.508,88.128 -0.612,3.672 0.611,6.732 1.836,9.18 -6.12,7.345 0.611,22.645 13.464,20.809 64.872,-9.182 131.58,-53.245 184.824,-88.741 z"
   id="path1301" />
</g></g><text
       xml:space="preserve"
       transform="matrix(0.26458333,0,0,0.26458333,182.88686,17.310774)"
       id="text1325"
       style="font-style:normal;font-weight:normal;font-size:20px;line-height:1.25;font-family:sans-serif;white-space:pre;shape-inside:url(#rect1339);display:inline;fill:#000000;fill-opacity:1;stroke:none"><tspan
         x="55.392578"
         y="188.18215"
         id="tspan1687">Randomly pick</tspan></text><g
       style="fill:#000000"
       id="g1331"
       transform="matrix(0,-0.00668423,0.00668423,0,200.08687,58.092386)"><g
         id="g1329">
	<path
   d="M 492.551,389.644 C 524.374,368.224 593.53,324.772 576.395,277.647 556.811,225.015 486.431,183.399 442.367,153.411 417.275,136.275 331.596,75.075 301.607,112.407 c -1.836,1.836 -2.448,4.896 -1.836,7.344 -12.24,25.092 -4.896,64.26 -4.896,91.188 0,4.896 0,9.792 0,14.688 -89.963,-0.612 -187.883,-29.988 -275.399,-4.284 -5.508,1.836 -7.956,5.508 -8.568,9.18 -0.612,0 -1.224,0.612 -1.836,0.612 -13.464,7.956 -7.956,38.556 -7.956,52.02 0,23.257 -0.612,47.737 3.672,70.38 1.224,5.509 4.896,8.568 9.18,9.181 2.448,3.06 4.896,4.284 8.568,4.284 92.412,-1.225 182.988,-12.24 275.399,-6.732 0,29.376 -1.224,58.752 -5.508,88.128 -0.612,3.672 0.611,6.732 1.836,9.18 -6.12,7.345 0.611,22.645 13.464,20.809 64.872,-9.182 131.58,-53.245 184.824,-88.741 z"
   id="path1327" />
</g></g><g
       style="fill:#000000"
       id="g1337"
       transform="matrix(0,-0.00668423,0.00668423,0,225.08072,58.122087)"><g
         id="g1335">
	<path
   d="M 492.551,389.644 C 524.374,368.224 593.53,324.772 576.395,277.647 556.811,225.015 486.431,183.399 442.367,153.411 417.275,136.275 331.596,75.075 301.607,112.407 c -1.836,1.836 -2.448,4.896 -1.836,7.344 -12.24,25.092 -4.896,64.26 -4.896,91.188 0,4.896 0,9.792 0,14.688 -89.963,-0.612 -187.883,-29.988 -275.399,-4.284 -5.508,1.836 -7.956,5.508 -8.568,9.18 -0.612,0 -1.224,0.612 -1.836,0.612 -13.464,7.956 -7.956,38.556 -7.956,52.02 0,23.257 -0.612,47.737 3.672,70.38 1.224,5.509 4.896,8.568 9.18,9.181 2.448,3.06 4.896,4.284 8.568,4.284 92.412,-1.225 182.988,-12.24 275.399,-6.732 0,29.376 -1.224,58.752 -5.508,88.128 -0.612,3.672 0.611,6.732 1.836,9.18 -6.12,7.345 0.611,22.645 13.464,20.809 64.872,-9.182 131.58,-53.245 184.824,-88.741 z"
   id="path1333" />
</g></g><rect
       style="fill:#f4d7d7;stroke:#000000;stroke-width:0.3;stroke-linecap:round;stroke-linejoin:round;stroke-miterlimit:7;stroke-dasharray:none;stroke-opacity:1"
       id="rect1397"
       width="12.917311"
       height="13.16572"
       x="182.58067"
       y="18.693985" /><rect
       style="fill:#ac9d93;stroke:#000000;stroke-width:0.3;stroke-linecap:round;stroke-linejoin:round;stroke-miterlimit:7;stroke-dasharray:none;stroke-opacity:1"
       id="rect1399"
       width="12.917311"
       height="13.16572"
       x="208.41528"
       y="18.693985" /><rect
       style="fill:#f4d7d7;stroke:#000000;stroke-width:0.3;stroke-linecap:round;stroke-linejoin:round;stroke-miterlimit:7;stroke-dasharray:none;stroke-opacity:1"
       id="rect1401"
       width="12.917311"
       height="13.16572"
       x="195.49797"
       y="38.304035" /><rect
       style="fill:#ac9d93;stroke:#000000;stroke-width:0.3;stroke-linecap:round;stroke-linejoin:round;stroke-miterlimit:7;stroke-dasharray:none;stroke-opacity:1"
       id="rect1403"
       width="12.917311"
       height="13.16572"
       x="234.24991"
       y="18.693985" /><rect
       style="fill:#f4d7d7;stroke:#000000;stroke-width:0.3;stroke-linecap:round;stroke-linejoin:round;stroke-miterlimit:7;stroke-dasharray:none;stroke-opacity:1"
       id="rect1405"
       width="12.917311"
       height="13.16572"
       x="221.33258"
       y="38.304035" /><rect
       style="fill:#f4d7d7;stroke:#000000;stroke-width:0.3;stroke-linecap:round;stroke-linejoin:round;stroke-miterlimit:7;stroke-dasharray:none;stroke-opacity:1"
       id="rect1407"
       width="12.917311"
       height="13.16572"
       x="247.16721"
       y="18.693985" /><rect
       style="fill:#f4d7d7;stroke:#000000;stroke-width:0.3;stroke-linecap:round;stroke-linejoin:round;stroke-miterlimit:7;stroke-dasharray:none;stroke-opacity:1"
       id="rect1409"
       width="12.917311"
       height="13.16572"
       x="182.42865"
       y="38.304035" /><rect
       style="fill:#ac9d93;stroke:#000000;stroke-width:0.3;stroke-linecap:round;stroke-linejoin:round;stroke-miterlimit:7;stroke-dasharray:none;stroke-opacity:1"
       id="rect1411"
       width="12.917311"
       height="13.16572"
       x="208.26326"
       y="38.304035" /><rect
       style="fill:#ac9d93;stroke:#000000;stroke-width:0.3;stroke-linecap:round;stroke-linejoin:round;stroke-miterlimit:7;stroke-dasharray:none;stroke-opacity:1"
       id="rect1413"
       width="12.917311"
       height="13.16572"
       x="195.46562"
       y="18.685701" /><rect
       style="fill:#ac9d93;stroke:#000000;stroke-width:0.3;stroke-linecap:round;stroke-linejoin:round;stroke-miterlimit:7;stroke-dasharray:none;stroke-opacity:1"
       id="rect1415"
       width="12.917311"
       height="13.16572"
       x="234.09789"
       y="38.304035" /><rect
       style="fill:#ac9d93;stroke:#000000;stroke-width:0.3;stroke-linecap:round;stroke-linejoin:round;stroke-miterlimit:7;stroke-dasharray:none;stroke-opacity:1"
       id="rect1417"
       width="12.917311"
       height="13.16572"
       x="221.35495"
       y="18.686409" /><rect
       style="fill:#f4d7d7;stroke:#000000;stroke-width:0.3;stroke-linecap:round;stroke-linejoin:round;stroke-miterlimit:7;stroke-dasharray:none;stroke-opacity:1"
       id="rect1419"
       width="12.917311"
       height="13.16572"
       x="247.01518"
       y="38.304035" /><text
       xml:space="preserve"
       transform="matrix(0.26458333,0,0,0.26458333,112.23057,-101.433)"
       id="text1423"
       style="font-style:normal;font-weight:normal;font-size:40px;line-height:1.25;font-family:sans-serif;white-space:pre;shape-inside:url(#rect1469);display:inline;fill:#000000;fill-opacity:1;stroke:none"><tspan
         x="277"
         y="493.49321"
         id="tspan1689">1</tspan></text><text
       xml:space="preserve"
       transform="matrix(0.26458333,0,0,0.26458333,124.47164,-127.12138)"
       id="text1427"
       style="font-style:normal;font-weight:normal;font-size:40px;line-height:1.25;font-family:sans-serif;white-space:pre;shape-inside:url(#rect1471);display:inline;fill:#000000;fill-opacity:1;stroke:none"><tspan
         x="280"
         y="590.49321"
         id="tspan1691">0</tspan></text><text
       xml:space="preserve"
       transform="matrix(0.26458333,0,0,0.26458333,112.07856,-81.822954)"
       id="text1431"
       style="font-style:normal;font-weight:normal;font-size:40px;line-height:1.25;font-family:sans-serif;white-space:pre;shape-inside:url(#rect1473);display:inline;fill:#000000;fill-opacity:1;stroke:none"><tspan
         x="277"
         y="493.49321"
         id="tspan1693">1</tspan></text><text
       xml:space="preserve"
       transform="matrix(0.26458333,0,0,0.26458333,125.14789,-81.822953)"
       id="text1435"
       style="font-style:normal;font-weight:normal;font-size:40px;line-height:1.25;font-family:sans-serif;white-space:pre;shape-inside:url(#rect1475);display:inline;fill:#000000;fill-opacity:1;stroke:none"><tspan
         x="277"
         y="493.49321"
         id="tspan1695">1</tspan></text><text
       xml:space="preserve"
       transform="matrix(0.26458333,0,0,0.26458333,150.9825,-81.822953)"
       id="text1439"
       style="font-style:normal;font-weight:normal;font-size:40px;line-height:1.25;font-family:sans-serif;white-space:pre;shape-inside:url(#rect1477);display:inline;fill:#000000;fill-opacity:1;stroke:none"><tspan
         x="277"
         y="493.49321"
         id="tspan1697">1</tspan></text><text
       xml:space="preserve"
       transform="matrix(0.26458333,0,0,0.26458333,137.26929,-107.50304)"
       id="text1443"
       style="font-style:normal;font-weight:normal;font-size:40px;line-height:1.25;font-family:sans-serif;white-space:pre;shape-inside:url(#rect1479);display:inline;fill:#000000;fill-opacity:1;stroke:none"><tspan
         x="280"
         y="590.49321"
         id="tspan1699">0</tspan></text><text
       xml:space="preserve"
       transform="matrix(0.26458333,0,0,0.26458333,150.62255,-127.38223)"
       id="text1447"
       style="font-style:normal;font-weight:normal;font-size:40px;line-height:1.25;font-family:sans-serif;white-space:pre;shape-inside:url(#rect1481);display:inline;fill:#000000;fill-opacity:1;stroke:none"><tspan
         x="280"
         y="590.49321"
         id="tspan1701">0</tspan></text><text
       xml:space="preserve"
       transform="matrix(0.26458333,0,0,0.26458333,163.1039,-107.50304)"
       id="text1451"
       style="font-style:normal;font-weight:normal;font-size:40px;line-height:1.25;font-family:sans-serif;white-space:pre;shape-inside:url(#rect1483);display:inline;fill:#000000;fill-opacity:1;stroke:none"><tspan
         x="280"
         y="590.49321"
         id="tspan1703">0</tspan></text><text
       xml:space="preserve"
       transform="matrix(0.26458333,0,0,0.26458333,176.81712,-101.433)"
       id="text1455"
       style="font-style:normal;font-weight:normal;font-size:40px;line-height:1.25;font-family:sans-serif;white-space:pre;shape-inside:url(#rect1485);display:inline;fill:#000000;fill-opacity:1;stroke:none"><tspan
         x="277"
         y="493.49321"
         id="tspan1705">1</tspan></text><text
       xml:space="preserve"
       transform="matrix(0.26458333,0,0,0.26458333,176.6651,-81.822954)"
       id="text1459"
       style="font-style:normal;font-weight:normal;font-size:40px;line-height:1.25;font-family:sans-serif;white-space:pre;shape-inside:url(#rect1487);display:inline;fill:#000000;fill-opacity:1;stroke:none"><tspan
         x="277"
         y="493.49321"
         id="tspan1707">1</tspan></text><text
       xml:space="preserve"
       transform="matrix(0.26458333,0,0,0.26458333,163.25592,-127.11309)"
       id="text1463"
       style="font-style:normal;font-weight:normal;font-size:40px;line-height:1.25;font-family:sans-serif;white-space:pre;shape-inside:url(#rect1489);display:inline;fill:#000000;fill-opacity:1;stroke:none"><tspan
         x="280"
         y="590.49321"
         id="tspan1709">0</tspan></text><text
       xml:space="preserve"
       transform="matrix(0.26458333,0,0,0.26458333,137.4213,-127.11309)"
       id="text1467"
       style="font-style:normal;font-weight:normal;font-size:40px;line-height:1.25;font-family:sans-serif;white-space:pre;shape-inside:url(#rect1491);display:inline;fill:#000000;fill-opacity:1;stroke:none"><tspan
         x="280"
         y="590.49321"
         id="tspan1711">0</tspan></text></g></svg>
