<?xml version="1.0" encoding="UTF-8" standalone="no"?>
<!-- Created with Inkscape (http://www.inkscape.org/) -->

<svg
   width="300mm"
   height="70mm"
   viewBox="0 0 300 70"
   version="1.1"
   id="svg5"
   xml:space="preserve"
   inkscape:version="1.2.1 (9c6d41e, 2022-07-14)"
   sodipodi:docname="mutation.svg"
   xmlns:inkscape="http://www.inkscape.org/namespaces/inkscape"
   xmlns:sodipodi="http://sodipodi.sourceforge.net/DTD/sodipodi-0.dtd"
   xmlns="http://www.w3.org/2000/svg"
   xmlns:svg="http://www.w3.org/2000/svg"><sodipodi:namedview
     id="namedview7"
     pagecolor="#ffffff"
     bordercolor="#666666"
     borderopacity="1.0"
     inkscape:showpageshadow="2"
     inkscape:pageopacity="0.0"
     inkscape:pagecheckerboard="0"
     inkscape:deskcolor="#d1d1d1"
     inkscape:document-units="mm"
     showgrid="false"
     inkscape:zoom="1.332425"
     inkscape:cx="717.11353"
     inkscape:cy="123.08385"
     inkscape:window-width="2560"
     inkscape:window-height="1654"
     inkscape:window-x="0"
     inkscape:window-y="25"
     inkscape:window-maximized="1"
     inkscape:current-layer="layer1" /><defs
     id="defs2"><rect
       x="280"
       y="554"
       width="45"
       height="48"
       id="rect1146" /><rect
       x="277"
       y="457"
       width="59"
       height="53"
       id="rect1140" /><rect
       x="55.393433"
       y="169.93578"
       width="184.95773"
       height="55.393433"
       id="rect236" /><rect
       x="55.393433"
       y="169.93578"
       width="184.95773"
       height="55.393433"
       id="rect402" /><rect
       x="277"
       y="457"
       width="59"
       height="53"
       id="rect1154" /><rect
       x="277"
       y="457"
       width="59"
       height="53"
       id="rect1160" /><rect
       x="277"
       y="457"
       width="59"
       height="53"
       id="rect1166" /><rect
       x="280"
       y="554"
       width="45"
       height="48"
       id="rect1172" /><rect
       x="280"
       y="554"
       width="45"
       height="48"
       id="rect1178" /><rect
       x="280"
       y="554"
       width="45"
       height="48"
       id="rect1184" /><rect
       x="277"
       y="457"
       width="59"
       height="53"
       id="rect1190" /><rect
       x="277"
       y="457"
       width="59"
       height="53"
       id="rect1196" /><rect
       x="280"
       y="554"
       width="45"
       height="48"
       id="rect1202" /><rect
       x="280"
       y="554"
       width="45"
       height="48"
       id="rect1208" /><rect
       x="55.393433"
       y="169.93578"
       width="184.95773"
       height="55.393433"
       id="rect1268" /><rect
       x="55.393433"
       y="169.93578"
       width="191.15594"
       height="111.17729"
       id="rect1356" /><rect
       x="55.393433"
       y="169.93578"
       width="184.95773"
       height="55.393433"
       id="rect1358" /><rect
       x="277"
       y="457"
       width="59"
       height="53"
       id="rect1360" /><rect
       x="280"
       y="554"
       width="45"
       height="48"
       id="rect1362" /><rect
       x="277"
       y="457"
       width="59"
       height="53"
       id="rect1364" /><rect
       x="277"
       y="457"
       width="59"
       height="53"
       id="rect1366" /><rect
       x="277"
       y="457"
       width="59"
       height="53"
       id="rect1368" /><rect
       x="280"
       y="554"
       width="45"
       height="48"
       id="rect1370" /><rect
       x="280"
       y="554"
       width="45"
       height="48"
       id="rect1372" /><rect
       x="280"
       y="554"
       width="45"
       height="48"
       id="rect1374" /><rect
       x="277"
       y="457"
       width="59"
       height="53"
       id="rect1376" /><rect
       x="277"
       y="457"
       width="59"
       height="53"
       id="rect1378" /><rect
       x="280"
       y="554"
       width="45"
       height="48"
       id="rect1380" /><rect
       x="280"
       y="554"
       width="45"
       height="48"
       id="rect1382" /><rect
       x="55.393433"
       y="169.93578"
       width="184.95773"
       height="55.393433"
       id="rect1384" /><rect
       x="55.393433"
       y="169.93578"
       width="195.58323"
       height="103.20817"
       id="rect740" /><rect
       x="277"
       y="457"
       width="59"
       height="53"
       id="rect816" /><rect
       x="277"
       y="457"
       width="59"
       height="53"
       id="rect818" /><rect
       x="277"
       y="457"
       width="59"
       height="53"
       id="rect820" /><rect
       x="277"
       y="457"
       width="59"
       height="53"
       id="rect822" /><rect
       x="280"
       y="554"
       width="45"
       height="48"
       id="rect824" /><rect
       x="280"
       y="554"
       width="45"
       height="48"
       id="rect826" /><rect
       x="55.393433"
       y="169.93578"
       width="195.58323"
       height="103.20817"
       id="rect844" /></defs><g
     inkscape:label="Layer 1"
     inkscape:groupmode="layer"
     id="layer1"
     transform="translate(-10.358801,-0.94242054)"><text
       xml:space="preserve"
       transform="matrix(0.26458333,0,0,0.26458333,3.7889037,-27.153123)"
       id="text234"
       style="font-style:normal;font-weight:normal;font-size:40px;line-height:1.25;font-family:sans-serif;white-space:pre;shape-inside:url(#rect236);display:inline;fill:#000000;fill-opacity:1;stroke:none"><tspan
         x="55.392578"
         y="206.42876"
         id="tspan953">Member</tspan></text><rect
       style="fill:#f4d7d7;stroke:#000000;stroke-width:0.3;stroke-linecap:round;stroke-linejoin:round;stroke-miterlimit:7;stroke-dasharray:none;stroke-opacity:1"
       id="rect456"
       width="12.917311"
       height="13.16572"
       x="64.389969"
       y="17.570368" /><rect
       style="fill:#ac9d93;stroke:#000000;stroke-width:0.3;stroke-linecap:round;stroke-linejoin:round;stroke-miterlimit:7;stroke-dasharray:none;stroke-opacity:1"
       id="rect1064"
       width="12.917311"
       height="13.16572"
       x="90.224586"
       y="17.570368" /><rect
       style="fill:#f4d7d7;stroke:#000000;stroke-width:0.3;stroke-linecap:round;stroke-linejoin:round;stroke-miterlimit:7;stroke-dasharray:none;stroke-opacity:1"
       id="rect1118"
       width="12.917311"
       height="13.16572"
       x="77.307281"
       y="17.570368" /><rect
       style="fill:#ac9d93;stroke:#000000;stroke-width:0.3;stroke-linecap:round;stroke-linejoin:round;stroke-miterlimit:7;stroke-dasharray:none;stroke-opacity:1"
       id="rect1120"
       width="12.917311"
       height="13.16572"
       x="116.05921"
       y="17.570368" /><rect
       style="fill:#f4d7d7;stroke:#000000;stroke-width:0.3;stroke-linecap:round;stroke-linejoin:round;stroke-miterlimit:7;stroke-dasharray:none;stroke-opacity:1"
       id="rect1122"
       width="12.917311"
       height="13.16572"
       x="103.1419"
       y="17.570368" /><rect
       style="fill:#f4d7d7;stroke:#000000;stroke-width:0.3;stroke-linecap:round;stroke-linejoin:round;stroke-miterlimit:7;stroke-dasharray:none;stroke-opacity:1"
       id="rect1124"
       width="12.917311"
       height="13.16572"
       x="128.97652"
       y="17.570368" /><text
       xml:space="preserve"
       transform="matrix(0.26458333,0,0,0.26458333,-5.9601223,-102.55662)"
       id="text1138"
       style="font-style:normal;font-weight:normal;font-size:40px;line-height:1.25;font-family:sans-serif;white-space:pre;shape-inside:url(#rect1140);display:inline;fill:#000000;fill-opacity:1;stroke:none"><tspan
         x="277"
         y="493.49321"
         id="tspan955">1</tspan></text><text
       xml:space="preserve"
       transform="matrix(0.26458333,0,0,0.26458333,6.9571897,-102.55662)"
       id="text1158"
       style="font-style:normal;font-weight:normal;font-size:40px;line-height:1.25;font-family:sans-serif;white-space:pre;shape-inside:url(#rect1160);display:inline;fill:#000000;fill-opacity:1;stroke:none"><tspan
         x="277"
         y="493.49321"
         id="tspan957">1</tspan></text><text
       xml:space="preserve"
       transform="matrix(0.26458333,0,0,0.26458333,32.791808,-102.55663)"
       id="text1164"
       style="font-style:normal;font-weight:normal;font-size:40px;line-height:1.25;font-family:sans-serif;white-space:pre;shape-inside:url(#rect1166);display:inline;fill:#000000;fill-opacity:1;stroke:none"><tspan
         x="277"
         y="493.49321"
         id="tspan959">1</tspan></text><text
       xml:space="preserve"
       transform="matrix(0.26458333,0,0,0.26458333,58.626425,-102.55662)"
       id="text1188"
       style="font-style:normal;font-weight:normal;font-size:40px;line-height:1.25;font-family:sans-serif;white-space:pre;shape-inside:url(#rect1190);display:inline;fill:#000000;fill-opacity:1;stroke:none"><tspan
         x="277"
         y="493.49321"
         id="tspan961">1</tspan></text><text
       xml:space="preserve"
       transform="matrix(0.26458333,0,0,0.26458333,45.065224,-128.23671)"
       id="text1200"
       style="font-style:normal;font-weight:normal;font-size:40px;line-height:1.25;font-family:sans-serif;white-space:pre;shape-inside:url(#rect1202);display:inline;fill:#000000;fill-opacity:1;stroke:none"><tspan
         x="280"
         y="590.49321"
         id="tspan963">0</tspan></text><text
       xml:space="preserve"
       transform="matrix(0.26458333,0,0,0.26458333,19.230607,-128.23671)"
       id="text1206"
       style="font-style:normal;font-weight:normal;font-size:40px;line-height:1.25;font-family:sans-serif;white-space:pre;shape-inside:url(#rect1208);display:inline;fill:#000000;fill-opacity:1;stroke:none"><tspan
         x="280"
         y="590.49321"
         id="tspan965">0</tspan></text><text
       xml:space="preserve"
       transform="matrix(0.26458333,0,0,0.26458333,248.39644,-26.918846)"
       id="text1272"
       style="font-style:normal;font-weight:normal;font-size:40px;line-height:1.25;font-family:sans-serif;white-space:pre;shape-inside:url(#rect1356);display:inline;fill:#000000;fill-opacity:1;stroke:none"><tspan
         x="55.392578"
         y="206.42876"
         id="tspan967">Mutated
</tspan><tspan
         x="55.392578"
         y="256.42876"
         id="tspan969">Member</tspan></text><g
       style="fill:#000000"
       id="g2486"
       transform="matrix(0,-0.00932047,0.00932047,0,81.289787,39.15852)"><g
         id="g2477">
	<path
   d="M 492.551,389.644 C 524.374,368.224 593.53,324.772 576.395,277.647 556.811,225.015 486.431,183.399 442.367,153.411 417.275,136.275 331.596,75.075 301.607,112.407 c -1.836,1.836 -2.448,4.896 -1.836,7.344 -12.24,25.092 -4.896,64.26 -4.896,91.188 0,4.896 0,9.792 0,14.688 -89.963,-0.612 -187.883,-29.988 -275.399,-4.284 -5.508,1.836 -7.956,5.508 -8.568,9.18 -0.612,0 -1.224,0.612 -1.836,0.612 -13.464,7.956 -7.956,38.556 -7.956,52.02 0,23.257 -0.612,47.737 3.672,70.38 1.224,5.509 4.896,8.568 9.18,9.181 2.448,3.06 4.896,4.284 8.568,4.284 92.412,-1.225 182.988,-12.24 275.399,-6.732 0,29.376 -1.224,58.752 -5.508,88.128 -0.612,3.672 0.611,6.732 1.836,9.18 -6.12,7.345 0.611,22.645 13.464,20.809 64.872,-9.182 131.58,-53.245 184.824,-88.741 z"
   id="path2475" />
</g></g><text
       xml:space="preserve"
       transform="matrix(0.26458333,0,0,0.26458333,61.889708,-2.7882694)"
       id="text738"
       style="font-style:normal;font-weight:normal;font-size:40px;line-height:1.25;font-family:sans-serif;white-space:pre;shape-inside:url(#rect740);display:inline;fill:#000000;fill-opacity:1;stroke:none"><tspan
         x="55.392578"
         y="206.42876"
         id="tspan971">Mutation 
</tspan><tspan
         x="55.392578"
         y="256.42876"
         id="tspan973">Position</tspan></text><g
       style="fill:#000000"
       id="g746"
       transform="matrix(0,-0.00932047,0.00932047,0,119.24273,40.329907)"><g
         id="g744">
	<path
   d="M 492.551,389.644 C 524.374,368.224 593.53,324.772 576.395,277.647 556.811,225.015 486.431,183.399 442.367,153.411 417.275,136.275 331.596,75.075 301.607,112.407 c -1.836,1.836 -2.448,4.896 -1.836,7.344 -12.24,25.092 -4.896,64.26 -4.896,91.188 0,4.896 0,9.792 0,14.688 -89.963,-0.612 -187.883,-29.988 -275.399,-4.284 -5.508,1.836 -7.956,5.508 -8.568,9.18 -0.612,0 -1.224,0.612 -1.836,0.612 -13.464,7.956 -7.956,38.556 -7.956,52.02 0,23.257 -0.612,47.737 3.672,70.38 1.224,5.509 4.896,8.568 9.18,9.181 2.448,3.06 4.896,4.284 8.568,4.284 92.412,-1.225 182.988,-12.24 275.399,-6.732 0,29.376 -1.224,58.752 -5.508,88.128 -0.612,3.672 0.611,6.732 1.836,9.18 -6.12,7.345 0.611,22.645 13.464,20.809 64.872,-9.182 131.58,-53.245 184.824,-88.741 z"
   id="path742" />
</g></g><rect
       style="fill:#f4d7d7;stroke:#000000;stroke-width:0.3;stroke-linecap:round;stroke-linejoin:round;stroke-miterlimit:7;stroke-dasharray:none;stroke-opacity:1"
       id="rect780"
       width="12.917311"
       height="13.16572"
       x="167.47205"
       y="18.038923" /><rect
       style="fill:#ac9d93;stroke:#000000;stroke-width:0.3;stroke-linecap:round;stroke-linejoin:round;stroke-miterlimit:7;stroke-dasharray:none;stroke-opacity:1"
       id="rect782"
       width="12.917311"
       height="13.16572"
       x="193.30666"
       y="18.038923" /><rect
       style="fill:#f4d7d7;stroke:#000000;stroke-width:0.3;stroke-linecap:round;stroke-linejoin:round;stroke-miterlimit:7;stroke-dasharray:none;stroke-opacity:1"
       id="rect784"
       width="12.917311"
       height="13.16572"
       x="219.20055"
       y="18.038923" /><rect
       style="fill:#ac9d93;stroke:#000000;stroke-width:0.3;stroke-linecap:round;stroke-linejoin:round;stroke-miterlimit:7;stroke-dasharray:none;stroke-opacity:1"
       id="rect786"
       width="12.917311"
       height="13.16572"
       x="180.33009"
       y="18.038923" /><rect
       style="fill:#f4d7d7;stroke:#000000;stroke-width:0.3;stroke-linecap:round;stroke-linejoin:round;stroke-miterlimit:7;stroke-dasharray:none;stroke-opacity:1"
       id="rect788"
       width="12.917311"
       height="13.16572"
       x="206.22397"
       y="18.038923" /><rect
       style="fill:#f4d7d7;stroke:#000000;stroke-width:0.3;stroke-linecap:round;stroke-linejoin:round;stroke-miterlimit:7;stroke-dasharray:none;stroke-opacity:1"
       id="rect790"
       width="12.917311"
       height="13.16572"
       x="232.05859"
       y="18.038923" /><text
       xml:space="preserve"
       transform="matrix(0.26458333,0,0,0.26458333,97.121951,-102.08807)"
       id="text794"
       style="font-style:normal;font-weight:normal;font-size:40px;line-height:1.25;font-family:sans-serif;white-space:pre;shape-inside:url(#rect816);display:inline;fill:#000000;fill-opacity:1;stroke:none"><tspan
         x="277"
         y="493.49321"
         id="tspan975">1</tspan></text><text
       xml:space="preserve"
       transform="matrix(0.26458333,0,0,0.26458333,148.85044,-102.08807)"
       id="text798"
       style="font-style:normal;font-weight:normal;font-size:40px;line-height:1.25;font-family:sans-serif;white-space:pre;shape-inside:url(#rect818);display:inline;fill:#000000;fill-opacity:1;stroke:none"><tspan
         x="277"
         y="493.49321"
         id="tspan977">1</tspan></text><text
       xml:space="preserve"
       transform="matrix(0.26458333,0,0,0.26458333,135.87388,-102.08808)"
       id="text802"
       style="font-style:normal;font-weight:normal;font-size:40px;line-height:1.25;font-family:sans-serif;white-space:pre;shape-inside:url(#rect820);display:inline;fill:#000000;fill-opacity:1;stroke:none"><tspan
         x="277"
         y="493.49321"
         id="tspan979">1</tspan></text><text
       xml:space="preserve"
       transform="matrix(0.26458333,0,0,0.26458333,161.7085,-102.08807)"
       id="text806"
       style="font-style:normal;font-weight:normal;font-size:40px;line-height:1.25;font-family:sans-serif;white-space:pre;shape-inside:url(#rect822);display:inline;fill:#000000;fill-opacity:1;stroke:none"><tspan
         x="277"
         y="493.49321"
         id="tspan981">1</tspan></text><text
       xml:space="preserve"
       transform="matrix(0.26458333,0,0,0.26458333,109.33612,-127.76816)"
       id="text810"
       style="font-style:normal;font-weight:normal;font-size:40px;line-height:1.25;font-family:sans-serif;white-space:pre;shape-inside:url(#rect824);display:inline;fill:#000000;fill-opacity:1;stroke:none"><tspan
         x="280"
         y="590.49321"
         id="tspan983">0</tspan></text><text
       xml:space="preserve"
       transform="matrix(0.26458333,0,0,0.26458333,122.31268,-127.76816)"
       id="text814"
       style="font-style:normal;font-weight:normal;font-size:40px;line-height:1.25;font-family:sans-serif;white-space:pre;shape-inside:url(#rect826);display:inline;fill:#000000;fill-opacity:1;stroke:none"><tspan
         x="280"
         y="590.49321"
         id="tspan985">0</tspan></text><g
       style="fill:#000000"
       id="g832"
       transform="matrix(0,-0.00932047,0.00932047,0,184.31864,39.784455)"><g
         id="g830">
	<path
   d="M 492.551,389.644 C 524.374,368.224 593.53,324.772 576.395,277.647 556.811,225.015 486.431,183.399 442.367,153.411 417.275,136.275 331.596,75.075 301.607,112.407 c -1.836,1.836 -2.448,4.896 -1.836,7.344 -12.24,25.092 -4.896,64.26 -4.896,91.188 0,4.896 0,9.792 0,14.688 -89.963,-0.612 -187.883,-29.988 -275.399,-4.284 -5.508,1.836 -7.956,5.508 -8.568,9.18 -0.612,0 -1.224,0.612 -1.836,0.612 -13.464,7.956 -7.956,38.556 -7.956,52.02 0,23.257 -0.612,47.737 3.672,70.38 1.224,5.509 4.896,8.568 9.18,9.181 2.448,3.06 4.896,4.284 8.568,4.284 92.412,-1.225 182.988,-12.24 275.399,-6.732 0,29.376 -1.224,58.752 -5.508,88.128 -0.612,3.672 0.611,6.732 1.836,9.18 -6.12,7.345 0.611,22.645 13.464,20.809 64.872,-9.182 131.58,-53.245 184.824,-88.741 z"
   id="path828" />
</g></g><text
       xml:space="preserve"
       transform="matrix(0.26458333,0,0,0.26458333,164.91856,-2.1623347)"
       id="text836"
       style="font-style:normal;font-weight:normal;font-size:40px;line-height:1.25;font-family:sans-serif;white-space:pre;shape-inside:url(#rect844);display:inline;fill:#000000;fill-opacity:1;stroke:none"><tspan
         x="55.392578"
         y="206.42876"
         id="tspan987">Mutation 
</tspan><tspan
         x="55.392578"
         y="256.42876"
         id="tspan989">Position</tspan></text><g
       style="fill:#000000"
       id="g842"
       transform="matrix(0,-0.00932047,0.00932047,0,222.27158,40.955842)"><g
         id="g840">
	<path
   d="M 492.551,389.644 C 524.374,368.224 593.53,324.772 576.395,277.647 556.811,225.015 486.431,183.399 442.367,153.411 417.275,136.275 331.596,75.075 301.607,112.407 c -1.836,1.836 -2.448,4.896 -1.836,7.344 -12.24,25.092 -4.896,64.26 -4.896,91.188 0,4.896 0,9.792 0,14.688 -89.963,-0.612 -187.883,-29.988 -275.399,-4.284 -5.508,1.836 -7.956,5.508 -8.568,9.18 -0.612,0 -1.224,0.612 -1.836,0.612 -13.464,7.956 -7.956,38.556 -7.956,52.02 0,23.257 -0.612,47.737 3.672,70.38 1.224,5.509 4.896,8.568 9.18,9.181 2.448,3.06 4.896,4.284 8.568,4.284 92.412,-1.225 182.988,-12.24 275.399,-6.732 0,29.376 -1.224,58.752 -5.508,88.128 -0.612,3.672 0.611,6.732 1.836,9.18 -6.12,7.345 0.611,22.645 13.464,20.809 64.872,-9.182 131.58,-53.245 184.824,-88.741 z"
   id="path838" />
</g></g><g
       style="fill:#000000"
       id="g850"
       transform="matrix(0.01515737,0,0,0.01515737,151.39448,20.530417)"><g
         id="g848">
	<path
   d="M 492.551,389.644 C 524.374,368.224 593.53,324.772 576.395,277.647 556.811,225.015 486.431,183.399 442.367,153.411 417.275,136.275 331.596,75.075 301.607,112.407 c -1.836,1.836 -2.448,4.896 -1.836,7.344 -12.24,25.092 -4.896,64.26 -4.896,91.188 0,4.896 0,9.792 0,14.688 -89.963,-0.612 -187.883,-29.988 -275.399,-4.284 -5.508,1.836 -7.956,5.508 -8.568,9.18 -0.612,0 -1.224,0.612 -1.836,0.612 -13.464,7.956 -7.956,38.556 -7.956,52.02 0,23.257 -0.612,47.737 3.672,70.38 1.224,5.509 4.896,8.568 9.18,9.181 2.448,3.06 4.896,4.284 8.568,4.284 92.412,-1.225 182.988,-12.24 275.399,-6.732 0,29.376 -1.224,58.752 -5.508,88.128 -0.612,3.672 0.611,6.732 1.836,9.18 -6.12,7.345 0.611,22.645 13.464,20.809 64.872,-9.182 131.58,-53.245 184.824,-88.741 z"
   id="path846" />
</g></g></g></svg>
